<mxfile modified="2023-04-18T00:05:27.293Z" host="app.diagrams.net" agent="Mozilla/5.0 (Macintosh; Intel Mac OS X 10_15_7) AppleWebKit/537.36 (KHTML, like Gecko) Chrome/112.0.0.0 Safari/537.36" etag="VohzM0kcr55rgr1QhVYF" version="21.1.5" type="github">
  <diagram id="Ht1M8jgEwFfnCIfOTk4-" name="Page-1">
    <mxGraphModel dx="632" dy="802" grid="1" gridSize="10" guides="1" tooltips="1" connect="1" arrows="1" fold="1" page="1" pageScale="1" pageWidth="1169" pageHeight="827" math="0" shadow="0">
      <root>
        <mxCell id="0" />
        <mxCell id="1" parent="0" />
        <mxCell id="Tx6BsI3ZOfHzf80Y_Cpy-1" value="VPC" style="points=[[0,0],[0.25,0],[0.5,0],[0.75,0],[1,0],[1,0.25],[1,0.5],[1,0.75],[1,1],[0.75,1],[0.5,1],[0.25,1],[0,1],[0,0.75],[0,0.5],[0,0.25]];outlineConnect=0;gradientColor=none;html=1;whiteSpace=wrap;fontSize=12;fontStyle=0;container=1;pointerEvents=0;collapsible=0;recursiveResize=0;shape=mxgraph.aws4.group;grIcon=mxgraph.aws4.group_vpc;strokeColor=#248814;fillColor=none;verticalAlign=top;align=left;spacingLeft=30;fontColor=#AAB7B8;dashed=0;" parent="1" vertex="1">
          <mxGeometry x="120" y="120" width="600" height="410" as="geometry" />
        </mxCell>
        <mxCell id="Tx6BsI3ZOfHzf80Y_Cpy-4" value="10.1.0.0/16" style="text;html=1;align=center;verticalAlign=middle;resizable=0;points=[];autosize=1;strokeColor=none;fillColor=none;" parent="Tx6BsI3ZOfHzf80Y_Cpy-1" vertex="1">
          <mxGeometry x="70" width="80" height="30" as="geometry" />
        </mxCell>
        <mxCell id="Tx6BsI3ZOfHzf80Y_Cpy-5" value="Subnet" style="sketch=0;outlineConnect=0;gradientColor=none;html=1;whiteSpace=wrap;fontSize=12;fontStyle=0;shape=mxgraph.aws4.group;grIcon=mxgraph.aws4.group_subnet;strokeColor=#879196;fillColor=none;verticalAlign=top;align=left;spacingLeft=30;fontColor=#879196;dashed=0;" parent="Tx6BsI3ZOfHzf80Y_Cpy-1" vertex="1">
          <mxGeometry x="40" y="80" width="200" height="160" as="geometry" />
        </mxCell>
        <mxCell id="Tx6BsI3ZOfHzf80Y_Cpy-6" value="Subnet" style="sketch=0;outlineConnect=0;gradientColor=none;html=1;whiteSpace=wrap;fontSize=12;fontStyle=0;shape=mxgraph.aws4.group;grIcon=mxgraph.aws4.group_subnet;strokeColor=#879196;fillColor=none;verticalAlign=top;align=left;spacingLeft=30;fontColor=#879196;dashed=0;" parent="Tx6BsI3ZOfHzf80Y_Cpy-1" vertex="1">
          <mxGeometry x="280" y="80" width="200" height="160" as="geometry" />
        </mxCell>
        <mxCell id="Tx6BsI3ZOfHzf80Y_Cpy-2" value="Instance" style="outlineConnect=0;dashed=0;verticalLabelPosition=bottom;verticalAlign=top;align=center;html=1;shape=mxgraph.aws3.instance;fillColor=#F58534;gradientColor=none;" parent="Tx6BsI3ZOfHzf80Y_Cpy-1" vertex="1">
          <mxGeometry x="290" y="130" width="60" height="61.5" as="geometry" />
        </mxCell>
        <mxCell id="Tx6BsI3ZOfHzf80Y_Cpy-12" value="10.1.0.0/24" style="text;html=1;align=center;verticalAlign=middle;resizable=0;points=[];autosize=1;strokeColor=none;fillColor=none;" parent="Tx6BsI3ZOfHzf80Y_Cpy-1" vertex="1">
          <mxGeometry x="275" y="55" width="80" height="30" as="geometry" />
        </mxCell>
        <mxCell id="Tx6BsI3ZOfHzf80Y_Cpy-13" value="10.1.1.0/24" style="text;html=1;align=center;verticalAlign=middle;resizable=0;points=[];autosize=1;strokeColor=none;fillColor=none;" parent="Tx6BsI3ZOfHzf80Y_Cpy-1" vertex="1">
          <mxGeometry x="80" y="55" width="80" height="30" as="geometry" />
        </mxCell>
        <mxCell id="IG_8rTsT2V6QGiq7ScMj-1" value="" style="sketch=0;outlineConnect=0;fontColor=#232F3E;gradientColor=none;fillColor=#4D27AA;strokeColor=none;dashed=0;verticalLabelPosition=bottom;verticalAlign=top;align=center;html=1;fontSize=12;fontStyle=0;aspect=fixed;pointerEvents=1;shape=mxgraph.aws4.nat_gateway;" vertex="1" parent="Tx6BsI3ZOfHzf80Y_Cpy-1">
          <mxGeometry x="390" y="130" width="68" height="68" as="geometry" />
        </mxCell>
        <mxCell id="Tx6BsI3ZOfHzf80Y_Cpy-10" value="Private" style="text;html=1;align=center;verticalAlign=middle;resizable=0;points=[];autosize=1;strokeColor=none;fillColor=none;" parent="1" vertex="1">
          <mxGeometry x="150" y="175" width="60" height="30" as="geometry" />
        </mxCell>
        <mxCell id="Tx6BsI3ZOfHzf80Y_Cpy-11" value="Public" style="text;html=1;align=center;verticalAlign=middle;resizable=0;points=[];autosize=1;strokeColor=none;fillColor=none;" parent="1" vertex="1">
          <mxGeometry x="350" y="175" width="60" height="30" as="geometry" />
        </mxCell>
      </root>
    </mxGraphModel>
  </diagram>
</mxfile>
